<svg width="280" height="280" viewBox="0 0 280 280" fill="none" xmlns="http://www.w3.org/2000/svg">
<path d="M140.02 104.045C127.414 104.045 117.038 114.421 117.038 127.028C117.038 139.634 127.414 150.01 140.02 150.01C152.627 150.01 162.954 139.634 162.954 127.028C162.954 114.421 152.627 104.045 140.02 104.045ZM140.02 117.382C145.421 117.382 149.617 121.627 149.617 127.028C149.617 132.429 145.421 136.673 140.02 136.673C134.619 136.673 130.375 132.429 130.375 127.028C130.375 121.627 134.619 117.382 140.02 117.382Z" fill="#00C7BE"/>
<path d="M140.02 158.524C119.833 158.524 102.239 172.553 97.7468 192.234C97.5119 193.102 97.4547 194.008 97.5787 194.898C97.7028 195.788 98.0054 196.643 98.4685 197.413C98.9315 198.183 99.5455 198.852 100.273 199.379C101.001 199.906 101.828 200.28 102.705 200.479C103.581 200.678 104.488 200.698 105.373 200.538C106.257 200.377 107.099 200.04 107.85 199.545C108.6 199.051 109.243 198.41 109.739 197.661C110.236 196.912 110.576 196.071 110.739 195.187C113.863 181.498 125.98 171.86 140.02 171.86C154.062 171.86 166.129 181.498 169.253 195.187C169.416 196.071 169.756 196.912 170.252 197.661C170.749 198.41 171.392 199.051 172.142 199.545C172.892 200.04 173.735 200.377 174.619 200.538C175.503 200.698 176.411 200.678 177.287 200.479C178.163 200.28 178.99 199.906 179.718 199.379C180.446 198.852 181.06 198.183 181.523 197.413C181.986 196.643 182.289 195.788 182.413 194.898C182.537 194.008 182.48 193.102 182.245 192.234C177.754 172.552 160.209 158.524 140.02 158.524Z" fill="#00C7BE"/>
<path d="M97.0086 79.9803C84.4018 79.9803 74.0756 90.3558 74.0756 102.963C74.0756 115.569 84.4018 125.945 97.0086 125.945C109.615 125.945 119.991 115.569 119.991 102.963C119.991 90.3558 109.615 79.9803 97.0086 79.9803ZM97.0086 93.317C102.41 93.317 106.654 97.5617 106.654 102.963C106.654 108.364 102.41 112.608 97.0086 112.608C91.6077 112.608 87.4122 108.364 87.4122 102.963C87.4122 97.5617 91.6077 93.317 97.0086 93.317Z" fill="#00C7BE"/>
<path d="M97.032 134.466C90.011 134.466 83.0918 136.176 76.8758 139.44C76.0999 139.847 75.4118 140.402 74.8508 141.075C74.2898 141.748 73.8667 142.525 73.6059 143.361C73.3451 144.197 73.2516 145.077 73.3308 145.949C73.41 146.821 73.6602 147.67 74.0673 148.445C74.4744 149.221 75.0303 149.909 75.7032 150.47C76.3762 151.03 77.1531 151.453 77.9894 151.714C78.8258 151.974 79.7053 152.067 80.5777 151.988C81.45 151.908 82.2982 151.657 83.0737 151.25C87.3781 148.99 92.1702 147.8 97.032 147.8C100.758 147.8 104.446 148.492 107.917 149.844C108.736 150.179 109.614 150.347 110.499 150.34C111.383 150.332 112.258 150.149 113.071 149.8C113.884 149.451 114.62 148.944 115.235 148.308C115.85 147.672 116.332 146.919 116.654 146.095C116.975 145.271 117.129 144.391 117.107 143.506C117.085 142.621 116.887 141.75 116.525 140.943C116.162 140.136 115.643 139.409 114.997 138.804C114.351 138.2 113.591 137.73 112.761 137.422C107.747 135.47 102.412 134.466 97.032 134.466Z" fill="#00C7BE"/>
<path d="M183.721 79.9803C171.114 79.9803 160.739 90.3558 160.739 102.963C160.739 115.569 171.114 125.945 183.721 125.945C196.328 125.945 206.654 115.569 206.654 102.963C206.654 90.3558 196.328 79.9803 183.721 79.9803ZM183.721 93.317C189.122 93.317 193.318 97.5617 193.318 102.963C193.318 108.364 189.122 112.608 183.721 112.608C178.32 112.608 174.076 108.364 174.076 102.963C174.076 97.5617 178.32 93.317 183.721 93.317Z" fill="#00C7BE"/>
<path d="M183.699 134.466C178.523 134.466 173.392 135.391 168.542 137.201C167.721 137.506 166.968 137.971 166.327 138.568C165.685 139.164 165.167 139.882 164.803 140.679C164.439 141.476 164.235 142.337 164.203 143.212C164.172 144.088 164.313 144.962 164.619 145.783C164.926 146.604 165.391 147.356 165.988 147.998C166.585 148.639 167.303 149.156 168.1 149.52C168.897 149.884 169.758 150.087 170.634 150.118C171.51 150.149 172.383 150.007 173.204 149.701C176.562 148.447 180.115 147.8 183.699 147.8C188.331 147.8 192.896 148.877 197.045 150.938C197.829 151.328 198.682 151.56 199.556 151.62C200.43 151.681 201.307 151.568 202.137 151.29C202.967 151.011 203.735 150.572 204.395 149.996C205.055 149.421 205.596 148.722 205.986 147.937C206.376 147.153 206.608 146.3 206.668 145.426C206.728 144.552 206.615 143.675 206.336 142.845C206.057 142.015 205.618 141.248 205.042 140.588C204.467 139.927 203.767 139.387 202.983 138.997C196.991 136.022 190.389 134.466 183.699 134.466Z" fill="#00C7BE"/>
</svg>
