<svg width="1024" height="1024" viewBox="0 0 1024 1024" fill="none" xmlns="http://www.w3.org/2000/svg">
<path d="M297.16 484.331C262.055 484.331 227.459 492.879 196.379 509.201C192.5 511.234 189.059 514.012 186.254 517.376C183.449 520.74 181.334 524.623 180.03 528.804C178.726 532.986 178.258 537.383 178.654 541.745C179.05 546.107 180.301 550.348 182.336 554.227C184.372 558.105 187.151 561.544 190.516 564.348C193.881 567.152 197.765 569.265 201.947 570.568C206.129 571.87 210.527 572.335 214.888 571.938C219.25 571.54 223.491 570.287 227.368 568.25C248.891 556.948 272.851 550.997 297.16 550.997C315.788 550.997 334.228 554.46 351.587 561.219C355.682 562.894 360.069 563.737 364.493 563.699C368.917 563.662 373.289 562.744 377.355 560.999C381.421 559.255 385.098 556.718 388.174 553.538C391.249 550.357 393.661 546.597 395.268 542.475C396.875 538.353 397.646 533.953 397.535 529.53C397.425 525.107 396.435 520.751 394.623 516.714C392.812 512.678 390.215 509.043 386.984 506.02C383.754 502.998 379.954 500.648 375.806 499.109C350.737 489.349 324.062 484.331 297.16 484.331Z" fill="black"/>
</svg>
