<svg width="1024" height="1024" viewBox="0 0 1024 1024" fill="none" xmlns="http://www.w3.org/2000/svg">
<path d="M730.493 484.331C704.614 484.331 678.957 488.952 654.712 498.003C650.606 499.531 646.841 501.854 643.633 504.838C640.424 507.822 637.835 511.409 636.014 515.394C634.192 519.379 633.174 523.684 633.017 528.062C632.859 532.441 633.566 536.808 635.097 540.913C636.628 545.018 638.953 548.782 641.939 551.988C644.925 555.195 648.514 557.782 652.5 559.601C656.486 561.42 660.791 562.436 665.17 562.591C669.548 562.746 673.915 562.036 678.019 560.503C694.808 554.236 712.574 550.997 730.493 550.997C753.656 550.997 776.48 556.385 797.225 566.688C801.145 568.639 805.411 569.799 809.78 570.101C814.149 570.403 818.534 569.841 822.685 568.448C826.837 567.055 830.673 564.858 833.975 561.982C837.277 559.106 839.98 555.607 841.93 551.687C843.88 547.766 845.038 543.499 845.339 539.13C845.639 534.762 845.076 530.377 843.681 526.226C842.287 522.075 840.088 518.239 837.211 514.938C834.334 511.637 830.834 508.935 826.913 506.987C796.954 492.108 763.943 484.331 730.493 484.331Z" fill="black"/>
</svg>
