<svg width="1024" height="1024" viewBox="0 0 1024 1024" fill="none" xmlns="http://www.w3.org/2000/svg">
<path d="M512.102 604.618C411.165 604.618 323.194 674.765 300.734 773.171C299.56 777.508 299.274 782.037 299.894 786.487C300.514 790.937 302.027 795.216 304.342 799.067C306.658 802.917 309.728 806.26 313.367 808.894C317.007 811.528 321.142 813.399 325.523 814.395C329.905 815.39 334.442 815.49 338.863 814.688C343.283 813.886 347.496 812.198 351.249 809.727C355.001 807.256 358.215 804.051 360.697 800.306C363.18 796.562 364.88 792.354 365.695 787.935C381.316 719.492 441.899 671.301 512.102 671.301C582.308 671.301 642.645 719.488 658.264 787.935C659.079 792.354 660.779 796.562 663.261 800.306C665.744 804.051 668.958 807.256 672.71 809.727C676.462 812.198 680.675 813.886 685.096 814.688C689.517 815.49 694.054 815.39 698.435 814.394C702.816 813.399 706.951 811.528 710.591 808.893C714.231 806.259 717.301 802.917 719.616 799.066C721.932 795.216 723.445 790.937 724.065 786.487C724.685 782.037 724.399 777.508 723.224 773.171C700.768 674.76 613.043 604.618 512.102 604.618Z" fill="black"/>
</svg>
